# xmcd CD database file
#
# Track frame offsets:
#	150
#	26410
#	48792
#	71555
#	96815
#	126342
#	162197
#	176242
#	198967
#	219392
#	240287
#	260550
#	289917
#	308827
#
# Disc length: 4433 seconds
#
# Revision: 1
# Processed by: cddbd v1.5.1PL0 Copyright (c) Steve Scherf et al.
# Submitted via: jetAudio 5
#
DISCID=c3114f0e
DTITLE=Sting - WORLD TOUR IN CONCERT POLICE&STING
DYEAR=1994
DGENRE=Pop
TTITLE0=IF I EVER LOSE MY FAITH IN YOU
TTITLE1=WALKING ON THE MOON
TTITLE2=MESSAGE IN A BOTTLE
TTITLE3=ROXANNE
TTITLE4=KING OF PAIN
TTITLE5=DON'T STAND SO CLOSE TO ME
TTITLE6=FORTRESS AROUND YOUR HEART
TTITLE7=EVERY BREATH YOU TAKE
TTITLE8=DRIVEN TO TEARS
TTITLE9=BRING ON THE NIGHT
TTITLE10=DE DO DO DO,DE DA DA DA
TTITLE11=CAN'T STAND LOSING YOU
TTITLE12=ENGLISH MAN IN NEW YORK
TTITLE13=IF YOU LOVE SOMEBODY SET THEM FREE
EXTD=YEAR: 1994
EXTT0=
EXTT1=
EXTT2=
EXTT3=
EXTT4=
EXTT5=
EXTT6=
EXTT7=
EXTT8=
EXTT9=
EXTT10=
EXTT11=
EXTT12=
EXTT13=
PLAYORDER=
